<?xml version="1.0" encoding="utf-8"?>
<!-- Generator: Adobe Illustrator 22.1.0, SVG Export Plug-In . SVG Version: 6.00 Build 0)  -->
<svg version="1.1" id="Layer_5" xmlns="http://www.w3.org/2000/svg" xmlns:xlink="http://www.w3.org/1999/xlink" x="0px" y="0px"
	 viewBox="0 0 512 512" style="enable-background:new 0 0 512 512;" xml:space="preserve">
<style type="text/css">
	.st0{fill:#4E5D7D;}
</style>
<path class="st0" d="M384,456h16v16h-16V456z"/>
<path class="st0" d="M384,424h16v16h-16V424z"/>
<path class="st0" d="M384,392h16v16h-16V392z"/>
<path class="st0" d="M112,40h16v16h-16V40z"/>
<path class="st0" d="M112,72h16v16h-16V72z"/>
<path class="st0" d="M112,104h16v16h-16V104z"/>
<path class="st0" d="M256,136c-66.2,0-120,53.8-120,120s53.8,120,120,120s120-53.8,120-120S322.2,136,256,136z M256,360
	c-57.3,0-104-46.7-104-104s46.7-104,104-104s104,46.7,104,104S313.3,360,256,360z"/>
<path class="st0" d="M256,216c8.8,0,16,7.2,16,16h16c0-14.9-10.2-27.3-24-30.9V184h-16v16h-24v32c0,17.6,14.4,32,32,32
	c8.8,0,16,7.2,16,16v16h-16c-8.8,0-16-7.2-16-16h-16c0,14.9,10.2,27.3,24,30.9V328h16v-16h24v-32c0-17.6-14.4-32-32-32
	c-8.8,0-16-7.2-16-16v-16H256z"/>
<path class="st0" d="M312,248h16v16h-16V248z"/>
<path class="st0" d="M184,248h16v16h-16V248z"/>
<path class="st0" d="M488,256c-5.9,0-11.3,1.7-16,4.4V192c0-13.2-10.8-24-24-24c-3.2,0-6.2,0.6-8.9,1.8c-2.8-10.2-12-17.8-23.1-17.8
	c-13.2,0-24,10.8-24,24v12.5c-24.9-50-76.4-84.5-136-84.5c-33.6,0-64.6,11.1-89.8,29.6l-6.2-8.3V8H32v101.3l-16,21.3
	c-5.2,6.9-8,15.4-8,24V256h16c5.9,0,11.3-1.7,16-4.4V320c0,13.2,10.8,24,24,24c3.2,0,6.2-0.6,8.9-1.8c2.8,10.2,12,17.8,23.1,17.8
	c13.2,0,24-10.8,24-24v-12.5c24.9,50,76.4,84.5,136,84.5c33.6,0,64.6-11.1,89.8-29.6l6.2,8.3V504h128V402.7l16-21.3
	c5.2-6.9,8-15.4,8-24V256H488z M104,336c0,4.4-3.6,8-8,8s-8-3.6-8-8v-16v-56v-8H72v8v56c0,4.4-3.6,8-8,8s-8-3.6-8-8v-96v-16v-11.1
	l7.8-3.9c14.6-7.3,25.3-20.6,29.3-36.5l2.6-10.6l-15.5-3.9l-2.7,10.6c-2.8,11.3-10.5,20.8-20.9,26.1L40,187.1V208v16
	c0,8.8-7.2,16-16,16v-85.3c0-5.2,1.7-10.3,4.8-14.4L48,114.7V24h96v106.7l9.8,13.1C123.3,171.6,104,211.5,104,256V336z M120,256
	c0-75,61-136,136-136s136,61,136,136s-61,136-136,136S120,331,120,256z M488,357.3c0,5.2-1.7,10.3-4.8,14.4L464,397.3V488h-96V381.3
	l-9.8-13.1C388.7,340.4,408,300.5,408,256v-80c0-4.4,3.6-8,8-8s8,3.6,8,8v16v56v8h16v-8v-56c0-4.4,3.6-8,8-8s8,3.6,8,8v96v16v11.1
	l-7.8,3.9c-14.6,7.3-25.3,20.6-29.3,36.5l-2.6,10.6l15.5,3.9l2.6-10.6c2.8-11.3,10.5-20.8,20.9-26.1l16.7-8.3V304v-16
	c0-8.8,7.2-16,16-16V357.3z"/>
<path class="st0" d="M386.2,93.8c-4.6-3.7-9.3-7.2-14.1-10.4l-8.9,13.3c4.4,3,8.8,6.2,13,9.6L386.2,93.8z"/>
<path class="st0" d="M200,88c12.2,0,22.3-9.3,23.7-21.1c42.2-7.1,86.9,0.1,124.4,20.6l7.7-14C315,51.1,266.2,43.3,220.3,51.2
	C216,44.5,208.5,40,200,40c-13.2,0-24,10.8-24,24S186.8,88,200,88z M200,56c4.4,0,8,3.6,8,8s-3.6,8-8,8s-8-3.6-8-8S195.6,56,200,56z
	"/>
<path class="st0" d="M125.8,418.2c4.6,3.7,9.3,7.2,14.1,10.4l8.9-13.3c-4.4-3-8.8-6.2-13-9.6L125.8,418.2z"/>
<path class="st0" d="M312,424c-12.2,0-22.3,9.3-23.7,21.1c-42.2,7.1-86.9-0.1-124.4-20.6l-7.7,14c30.4,16.7,64.9,25.5,99.8,25.5
	c12,0,24-1.1,35.8-3.1c4.3,6.7,11.7,11.1,20.2,11.1c13.2,0,24-10.8,24-24S325.2,424,312,424L312,424z M312,456c-4.4,0-8-3.6-8-8
	s3.6-8,8-8s8,3.6,8,8S316.4,456,312,456z"/>
</svg>
