<?xml version="1.0" encoding="utf-8"?>
<!-- Generator: Adobe Illustrator 22.1.0, SVG Export Plug-In . SVG Version: 6.00 Build 0)  -->
<svg version="1.1" id="Capa_1" xmlns="http://www.w3.org/2000/svg" xmlns:xlink="http://www.w3.org/1999/xlink" x="0px" y="0px"
	 viewBox="0 0 512 512" style="enable-background:new 0 0 512 512;" xml:space="preserve">
<style type="text/css">
	.st0{fill:#0089FF;}
</style>
<g>
	<g>
		<path class="st0" d="M509,453.7C509,453.7,509,453.7,509,453.7c-4.9-10.1-15.2-16.6-26.4-16.6h-13c6.3-7.4,10.1-17,10.1-27.4
			v-98.1c0-4.1-3.4-7.5-7.5-7.5s-7.5,3.4-7.5,7.5v98.1c0,15.1-12.3,27.4-27.4,27.4c-3,0-353.4,0-362.7,0
			c-15.1,0-27.4-12.3-27.4-27.4V163.1c0-15.1,12.3-27.4,27.4-27.4h84.2c-1.4,7.1-1.9,14.1-1.7,21.4c-42.7,0-29.4,0-75.2,0
			c-7.5,0-13.6,6.1-13.6,13.6c0,9.9,0,217.6,0,229.4c0,8.7,7.1,15.8,15.8,15.8h343.6c8.7,0,15.8-7.1,15.8-15.8
			c0-6.3,0-217.5,0-227.2c0-8.7-7.1-15.8-15.8-15.8h-73c0.1-2.1,0.1-3.1,0.1-3.1c0-6.2-0.6-12.5-1.7-18.4h84.2
			c15.1,0,27.4,12.3,27.4,27.4v113.5c0,4.1,3.4,7.5,7.5,7.5s7.5-3.4,7.5-7.5V163.1c0-23.4-19-42.4-42.4-42.4h-88.2
			c-11.6-32.4-39.6-57.3-74.9-63.9c-4.1-0.8-8,1.9-8.7,6c-0.8,4.1,1.9,8,6,8.7c81.8,15.2,93.5,128.9,16,160.3c-4.3,1.7-7,5.8-7,10.5
			v17.6h-17v-67h11.4c9.4,0,17-7.6,17-17v-7.7c0-9.4-7.6-17-17-17h-37.8c-9.4,0-17,7.6-17,17v7.7c0,9.4,7.6,17,17,17h11.4v67h-17
			c0-19.7,0-18.5-0.1-19.5c-0.5-3.9-3.1-7-6.6-8.4c-77.7-31.1-66.3-143.7,14.5-160.2c4.1-0.8,6.7-4.8,5.8-8.8
			c-0.8-4.1-4.8-6.7-8.8-5.9c-32.7,6.7-61.3,30.2-73.3,63.6H74.7c-23.4,0-42.4,19-42.4,42.4v246.6c0,10.4,3.8,20,10.1,27.4h-13
			c-11.2,0-21.5,6.5-26.4,16.6c-10.4,21.7,7.4,56.9,40.7,56.9h424.6C501.8,510.6,519.4,475.2,509,453.7z M83.4,172.9
			c0-0.4,0.4-0.8,0.8-0.8h32.4v0v24.5H83.4V172.9z M353.3,172.1h74.5v0c0.4,0,0.8,0.4,0.8,0.8v23.7h-83.3
			C349,189,351.7,180.7,353.3,172.1z M237.1,177.9c-1.1,0-2-0.9-2-2v-7.7c0-1.1,0.9-2,2-2h37.8c1.1,0,2,0.9,2,2v7.7c0,1.1-0.9,2-2,2
			H237.1z M219.7,278.8c0-1.8,1.3-3.9,4.4-3.9H288c2.9,0,4.4,2,4.4,3.9v3.9c0,2.1-1.8,3.9-3.9,3.9c-6.9,0-58.3,0-64.9,0
			c-2.1,0-3.9-1.8-3.9-3.9L219.7,278.8L219.7,278.8z M272.1,301.6l-4.6,9.2c-2.2,4.4-6.5,7.1-11.5,7.1c-5,0-9.3-2.7-11.5-7.1
			l-4.6-9.2H272.1z M175.6,211.7c10.6,14.8,25.1,26.2,41,33.1v15.9c-6.9,2.2-11.9,8.6-11.9,16.2c0,3.7,0,3.9,0,7.7
			c0,9.4,7.6,17,17,17h1.5c4.9,9.8,3.1,6.2,8,15.9c4.7,9.5,14.3,15.4,24.9,15.4c10.6,0,20.2-5.9,24.9-15.4l8-15.9h1.5
			c9.4,0,17-7.6,17-17c0,0,0-7.7,0-7.7c0-7.6-5-14-11.9-16.2v-15.9c16.3-7.1,30.6-18.5,41-33.1h92.1v188.5c0,0.4-0.4,0.8-0.8,0.8
			H84.2c-0.4,0-0.8-0.4-0.8-0.8V211.7C93.5,211.7,165.4,211.7,175.6,211.7z M166.7,196.7h-35.1v-24.5h27.2
			C160.3,180.5,163,188.8,166.7,196.7z M201.3,452.1h109.4v5c0,5.1-4.2,9.3-9.3,9.3h-90.9c-5.1,0-9.3-4.2-9.3-9.3V452.1z
			 M468.3,495.6H43.7c-22.4,0-32.8-23.8-27.2-35.4c2.4-4.9,7.4-8.1,12.9-8.1c4.3,0,149.1,0,157,0v5c0,13.4,10.9,24.3,24.3,24.3h90.9
			c13.4,0,24.3-10.9,24.3-24.3v-5c8,0,152.6,0,157,0c5.4,0,10.5,3.2,12.9,8.1C501,471.6,491,495.6,468.3,495.6z"/>
	</g>
</g>
<g>
	<g>
		<path class="st0" d="M385.2,76c-2.1-3.6-6.7-4.8-10.2-2.7l-16.3,9.4c-3.6,2.1-4.8,6.7-2.7,10.2c2.1,3.6,6.7,4.8,10.2,2.7l16.3-9.4
			C386.1,84.2,387.3,79.6,385.2,76z"/>
	</g>
</g>
<g>
	<g>
		<path class="st0" d="M330.6,21.4c-3.6-2.1-8.2-0.8-10.2,2.7L311,40.4c-2.1,3.6-0.8,8.2,2.7,10.2c3.6,2.1,8.2,0.8,10.2-2.7
			l9.4-16.3C335.4,28.1,334.2,23.5,330.6,21.4z"/>
	</g>
</g>
<g>
	<g>
		<path class="st0" d="M256,1.4c-4.1,0-7.5,3.4-7.5,7.5v18.8c0,4.1,3.4,7.5,7.5,7.5s7.5-3.4,7.5-7.5V8.9
			C263.5,4.8,260.2,1.4,256,1.4z"/>
	</g>
</g>
<g>
	<g>
		<path class="st0" d="M201,40.4l-9.4-16.3c-2.1-3.6-6.7-4.8-10.2-2.7c-3.6,2.1-4.8,6.7-2.7,10.2l9.4,16.3c2.1,3.6,6.7,4.8,10.2,2.7
			C201.9,48.6,203.1,44,201,40.4z"/>
	</g>
</g>
<g>
	<g>
		<path class="st0" d="M153.3,82.7L137,73.3c-3.6-2.1-8.2-0.8-10.2,2.7c-2.1,3.6-0.8,8.2,2.7,10.2l16.3,9.4
			c3.6,2.1,8.2,0.8,10.2-2.7C158.1,89.3,156.9,84.8,153.3,82.7z"/>
	</g>
</g>
</svg>
