<?xml version="1.0" encoding="utf-8"?>
<!-- Generator: Adobe Illustrator 22.1.0, SVG Export Plug-In . SVG Version: 6.00 Build 0)  -->
<svg version="1.1" id="Layer_5" xmlns="http://www.w3.org/2000/svg" xmlns:xlink="http://www.w3.org/1999/xlink" x="0px" y="0px"
	 viewBox="0 0 512 512" style="enable-background:new 0 0 512 512;" xml:space="preserve">
<style type="text/css">
	.st0{fill:#0089FF;}
</style>
<path class="st0" d="M440,104h-40V48c0-22.1-17.9-40-40-40H88C65.9,8,48,25.9,48,48v40h64v16H72c-22.1,0-40,17.9-40,40v240
	c0,22.1,17.9,40,40,40h115.1l-16,32H144c-13.2,0-24,10.8-24,24s10.8,24,24,24h224c13.2,0,24-10.8,24-24s-10.8-24-24-24h-27.1l-16-32
	H360h48h32c22.1,0,40-17.9,40-40V144C480,121.9,462.1,104,440,104z M384,322.4V344h-21.6C370.8,338.1,378.1,330.8,384,322.4z
	 M312,344c-39.7,0-72-32.3-72-72s32.3-72,72-72s72,32.3,72,72S351.7,344,312,344z M400,152h32v192h-32V152z M384,48v173.6
	c-15.9-22.7-42.2-37.6-72-37.6c-48.5,0-88,39.5-88,88c0,29.8,14.9,56.1,37.6,72H128V48c0-9-3.1-17.3-8.2-24H360
	C373.2,24,384,34.8,384,48z M112,344H80V152h32V344z M64,72V48c0-13.2,10.8-24,24-24s24,10.8,24,24v24H64z M376,480c0,4.4-3.6,8-8,8
	H144c-4.4,0-8-3.6-8-8s3.6-8,8-8h224C372.4,472,376,475.6,376,480z M323.1,456H188.9l16-32h102.1L323.1,456z M360,408
	c-4.4,0-8-3.6-8-8s3.6-8,8-8h48c4.4,0,8,3.6,8,8s-3.6,8-8,8H360z M464,384c0,13.2-10.8,24-24,24h-9.5c0.9-2.5,1.5-5.2,1.5-8
	c0-13.2-10.8-24-24-24h-48c-13.2,0-24,10.8-24,24c0,2.8,0.6,5.5,1.5,8H72c-13.2,0-24-10.8-24-24V144c0-13.2,10.8-24,24-24h40v16H80
	c-8.8,0-16,7.2-16,16v192c0,8.8,7.2,16,16,16h352c8.8,0,16-7.2,16-16V152c0-8.8-7.2-16-16-16h-32v-16h40c13.2,0,24,10.8,24,24V384z"
	/>
<path class="st0" d="M80,376h16v16H80V376z"/>
<path class="st0" d="M112,376h16v16h-16V376z"/>
<path class="st0" d="M144,376h16v16h-16V376z"/>
<path class="st0" d="M312,248c4.4,0,8,3.6,8,8h16c0-10.4-6.7-19.2-16-22.5V216h-16v16h-16v24c0,13.2,10.8,24,24,24c4.4,0,8,3.6,8,8
	v8h-8c-4.4,0-8-3.6-8-8h-16c0,10.4,6.7,19.2,16,22.5V328h16v-16h16v-24c0-13.2-10.8-24-24-24c-4.4,0-8-3.6-8-8v-8H312z"/>
<circle class="st0" cx="264" cy="272" r="8"/>
<circle class="st0" cx="360" cy="272" r="8"/>
<path class="st0" d="M368,40h-48v112h-16V72h-48v80h-16v-48h-48v64h176V40z M224,152h-16v-32h16V152z M272,88h16v64h-16V88z
	 M352,152h-16V56h16V152z"/>
<path class="st0" d="M144,312h64v16h-64V312z"/>
<path class="st0" d="M144,280h64v16h-64V280z"/>
<path class="st0" d="M144,248h64v16h-64V248z"/>
<path class="st0" d="M144,216h64v16h-64V216z"/>
<path class="st0" d="M144,184h64v16h-64V184z"/>
<path class="st0" d="M144,40h16v16h-16V40z"/>
<path class="st0" d="M144,72h16v16h-16V72z"/>
<path class="st0" d="M144,104h16v16h-16V104z"/>
</svg>
