<?xml version="1.0" encoding="utf-8"?>
<!-- Generator: Adobe Illustrator 22.1.0, SVG Export Plug-In . SVG Version: 6.00 Build 0)  -->
<svg version="1.1" id="Capa_1" xmlns="http://www.w3.org/2000/svg" xmlns:xlink="http://www.w3.org/1999/xlink" x="0px" y="0px"
	 viewBox="0 0 512 512" style="enable-background:new 0 0 512 512;" xml:space="preserve">
<style type="text/css">
	.st0{fill:#0089FF;}
</style>
<g>
	<g>
		<path class="st0" d="M242.8,385h-3.6c-4.1,0-7.5,3.4-7.5,7.5s3.4,7.5,7.5,7.5h3.6c4.1,0,7.5-3.4,7.5-7.5
			C250.3,388.4,246.9,385,242.8,385z"/>
	</g>
</g>
<g>
	<g>
		<path class="st0" d="M284.5,249.3H256c-4.1,0-7.5,3.4-7.5,7.5s3.4,7.5,7.5,7.5h28.5c4.1,0,7.5-3.4,7.5-7.5
			S288.6,249.3,284.5,249.3z"/>
	</g>
</g>
<g>
	<g>
		<path class="st0" d="M284.5,276.5H256c-4.1,0-7.5,3.4-7.5,7.5s3.4,7.5,7.5,7.5h28.5c4.1,0,7.5-3.4,7.5-7.5
			S288.6,276.5,284.5,276.5z"/>
	</g>
</g>
<g>
	<g>
		<path class="st0" d="M351.4,249.3H323c-4.1,0-7.5,3.4-7.5,7.5s3.4,7.5,7.5,7.5h28.5c4.1,0,7.5-3.4,7.5-7.5
			S355.6,249.3,351.4,249.3z"/>
	</g>
</g>
<g>
	<g>
		<path class="st0" d="M351.4,276.5H323c-4.1,0-7.5,3.4-7.5,7.5s3.4,7.5,7.5,7.5h28.5c4.1,0,7.5-3.4,7.5-7.5
			S355.6,276.5,351.4,276.5z"/>
	</g>
</g>
<g>
	<g>
		<path class="st0" d="M418.4,249.3H390c-4.1,0-7.5,3.4-7.5,7.5s3.4,7.5,7.5,7.5h28.5c4.1,0,7.5-3.4,7.5-7.5
			S422.6,249.3,418.4,249.3z"/>
	</g>
</g>
<g>
	<g>
		<path class="st0" d="M418.4,276.5H390c-4.1,0-7.5,3.4-7.5,7.5s3.4,7.5,7.5,7.5h28.5c4.1,0,7.5-3.4,7.5-7.5
			S422.6,276.5,418.4,276.5z"/>
	</g>
</g>
<g>
	<g>
		<path class="st0" d="M270.2,186.7c-13.7,0-24.9,11.2-24.9,24.9s11.2,24.9,24.9,24.9c13.7,0,24.9-11.2,24.9-24.9
			S283.9,186.7,270.2,186.7z M270.2,221.5c-5.4,0-9.9-4.4-9.9-9.9c0-5.4,4.4-9.9,9.9-9.9c5.4,0,9.9,4.4,9.9,9.9
			C280.1,217.1,275.7,221.5,270.2,221.5z"/>
	</g>
</g>
<g>
	<g>
		<path class="st0" d="M337.2,186.7c-13.7,0-24.9,11.2-24.9,24.9s11.2,24.9,24.9,24.9s24.9-11.2,24.9-24.9S350.9,186.7,337.2,186.7z
			 M337.2,221.5c-5.4,0-9.9-4.4-9.9-9.9c0-5.4,4.4-9.9,9.9-9.9s9.9,4.4,9.9,9.9C347.1,217.1,342.7,221.5,337.2,221.5z"/>
	</g>
</g>
<g>
	<g>
		<path class="st0" d="M404.2,186.7c-13.7,0-24.9,11.2-24.9,24.9s11.2,24.9,24.9,24.9s24.9-11.2,24.9-24.9S417.9,186.7,404.2,186.7z
			 M404.2,221.5c-5.4,0-9.9-4.4-9.9-9.9c0-5.4,4.4-9.9,9.9-9.9c5.4,0,9.9,4.4,9.9,9.9S409.6,221.5,404.2,221.5z"/>
	</g>
</g>
<g>
	<g>
		<path class="st0" d="M461.8,0H353.2c-4.1,0-7.5,3.4-7.5,7.5s3.4,7.5,7.5,7.5h103.1v43.6H215.1V15h103.1c4.1,0,7.5-3.4,7.5-7.5
			S322.4,0,318.2,0H209.7c-5.3,0-9.6,4.3-9.6,9.6c0,4.1,0,78.6,0,80.8H62c-11.8,0-21.4,9.6-21.4,21.4c0,11.5,0,285.6,0,300
			c0,11.1,8.4,20.2,19.2,21.3c0.7,0.1,1.4,0.1,2.2,0.1h131.5v32.5h-18.7c-10.6,0-19.2,8.6-19.2,19.2v8c0,10.6,8.6,19.2,19.2,19.2
			h47.7c4.1,0,7.5-3.4,7.5-7.5s-3.4-7.5-7.5-7.5h-47.7c-2.3,0-4.2-1.9-4.2-4.2v-8c0-2.3,1.9-4.2,4.2-4.2c12.1,0,113.8,0,128.5,0
			c2.3,0,4.2,1.9,4.2,4.2v8c0,2.3-1.9,4.2-4.2,4.2h-45.7c-4.1,0-7.5,3.4-7.5,7.5s3.4,7.5,7.5,7.5h45.7c10.6,0,19.2-8.6,19.2-19.2v-8
			c0-10.6-8.6-19.2-19.2-19.2h-18.7v-32.5h135.2h0c11.8,0,21.4-9.6,21.4-21.4c0-3.5,0-76.8,0-80.2h20.5c5.3,0,9.6-4.3,9.6-9.6
			c0-5.4,0-310.1,0-312.4C471.4,4.3,467.1,0,461.8,0z M421.3,73.6l-85.5,31.1l-85.5-31.1H421.3z M421.3,151.7H250.2l85.5-31.1
			L421.3,151.7z M215.1,76.8l98.7,35.9l-98.7,35.9C215.1,141.4,215.1,85.4,215.1,76.8z M209.7,331.6h0.2h187.8v20.2H84.2V168.9
			c10.8,0,102.5,0,116,0v152.9v0.2C200.1,327.3,204.4,331.6,209.7,331.6z M84.2,153.9v-17.5c0-0.4,0.3-0.7,0.7-0.7h20.8v18.2h0
			L84.2,153.9L84.2,153.9z M120.7,153.9v-18.2h79.4v18.2H120.7z M55.7,111.8c0-3.5,2.9-6.4,6.4-6.4h138.1v15.3
			c-54.3,0-59.8,0-115.2,0c-8.7,0-15.7,7.1-15.7,15.7c0,13.9,0,209.1,0,215.4H55.7L55.7,111.8L55.7,111.8z M269.7,465.6h-61.1v-32.5
			h61.1V465.6z M426.2,411.8c0,3.5-2.9,6.4-6.4,6.4c-5.5,0-352.2,0-357.8,0c-0.2,0-0.4,0-0.7,0c-3.2-0.3-5.7-3-5.7-6.3v-44.9
			c4.6,0,366,0,370.6,0L426.2,411.8L426.2,411.8z M412.7,351.8v-20.2h13.5v20.2H412.7z M456.3,316.6c-9.2,0-231.6,0-241.2,0V166.7
			h241.2V316.6z M456.3,148.5l-98.7-35.9l98.7-35.9V148.5z"/>
	</g>
</g>
</svg>
