<?xml version="1.0" encoding="utf-8"?>
<!-- Generator: Adobe Illustrator 22.1.0, SVG Export Plug-In . SVG Version: 6.00 Build 0)  -->
<svg version="1.1" id="Layer_5" xmlns="http://www.w3.org/2000/svg" xmlns:xlink="http://www.w3.org/1999/xlink" x="0px" y="0px"
	 viewBox="0 0 512 512" style="enable-background:new 0 0 512 512;" xml:space="preserve">
<style type="text/css">
	.st0{fill:#0089FF;}
</style>
<path class="st0" d="M208,304c17.6,0,32-14.4,32-32h-16c0,8.8-7.2,16-16,16s-16-7.2-16-16h-16C176,289.6,190.4,304,208,304z"/>
<circle class="st0" cx="168" cy="208" r="8"/>
<circle class="st0" cx="248" cy="208" r="8"/>
<path class="st0" d="M504,8H168v39c-46.5,16.5-80,60.9-80,113v64c0,21.2,16.6,38.4,37.4,39.7c7.4,25.6,22.2,48.4,42.6,65.5v10.1
	c0,9.4-5.6,18-14.2,21.9l-82.8,37.2C32.8,415.7,8,454,8,496v8h400v-8c0-42-24.8-80.3-63.1-97.6l-14.3-6.4H504V8z M208,56
	c57.3,0,104,46.7,104,104v32.2c-6.7-5.1-15-8.2-24-8.2h-0.2c-7.3-9.7-18.8-16-31.8-16h-56.7c-13.6,0-26.8-4-38.2-11.6
	c-4.4-2.9-9.4-4.4-14.7-4.4c-14.6,0-26.4,11.8-26.4,26.4v6.4c-5.9,1.2-11.3,3.9-16,7.4V160C104,102.7,150.7,56,208,56L208,56z
	 M295.3,201.3c9.6,3.1,16.7,12.1,16.7,22.7c0,11-7.5,20.2-17.7,23c1.1-6.9,1.7-14,1.7-21.2V208C296,205.7,295.7,203.5,295.3,201.3z
	 M104,224c0-10.4,6.7-19.2,16-22.5v24.4c0,7.2,0.6,14.3,1.7,21.2C111.5,244.2,104,235,104,224z M136,225.8v-47.4
	c0-5.7,4.7-10.4,10.4-10.4c2.1,0,4.1,0.6,5.8,1.8c14,9.3,30.3,14.2,47.1,14.2H256c13.2,0,24,10.8,24,24v17.8
	c0,48-28.2,90.6-72,109.5C164.2,316.4,136,273.8,136,225.8z M205,351.4l3,1.2l3-1.2c7.5-3,14.5-6.6,21.1-10.7
	c0.2,5.8,1.6,11.3,4.1,16.3L208,394.7L179.8,357c2.5-5,3.9-10.6,4.1-16.3C190.6,344.8,197.6,348.4,205,351.4L205,351.4z
	 M273.2,383.7l6.1,36.8l-34.2,25.6l15.5,23.3L229.8,488h-2.2l40.1-106.8L273.2,383.7z M155.3,469.5l15.5-23.3l-34.2-25.6l6.1-36.8
	l5.5-2.5L188.4,488h-2.2L155.3,469.5z M197,406.7l-16.8,14l-17.4-46.2c2.4-1.3,4.6-2.7,6.6-4.4L197,406.7z M186.2,436.6l21.8-18.1
	l21.8,18.1L210.5,488h-4.9L186.2,436.6z M235.7,420.7l-16.8-14l27.5-36.7c2,1.7,4.3,3.1,6.6,4.4L235.7,420.7z M77.6,413l47.7-21.4
	l-6,35.9l29.8,22.4l-16.5,24.7l22.4,13.4H88v-48H72v48H24.4C27.2,455.5,47.5,426.6,77.6,413z M391.6,488H344v-48h-16v48h-67.1
	l22.4-13.5l-16.5-24.7l29.8-22.4l-6-35.9l47.7,21.4C368.5,426.6,388.8,455.5,391.6,488z M488,376H295.1l-32.9-14.8
	c-8.6-3.9-14.2-12.5-14.2-21.9v-10.1c20.4-17.1,35.2-39.8,42.6-65.5c20.8-1.4,37.4-18.6,37.4-39.7v-64c0-66.2-53.8-120-120-120
	c-8.2,0-16.2,0.8-24,2.4V24h304V376z"/>
<path class="st0" d="M424,360h48V136h-48V360z M440,152h16v192h-16V152z"/>
<path class="st0" d="M360,360h48V200h-48V360z M376,216h16v128h-16V216z"/>
<path class="st0" d="M296,360h48v-80h-48V360z M312,296h16v48h-16V296z"/>
<path class="st0" d="M456,40h16v16h-16V40z"/>
<path class="st0" d="M424,40h16v16h-16V40z"/>
<path class="st0" d="M344,40h64v16h-64V40z"/>
<path class="st0" d="M344,72h128v16H344V72z"/>
<path class="st0" d="M344,104h128v16H344V104z"/>
</svg>
