<svg id="Capa_1" data-name="Capa 1" xmlns="http://www.w3.org/2000/svg" viewBox="0 0 496 496"><defs><style>.cls-1{fill:#4e5d7d;}</style></defs><title>blurb_ico03</title><path class="cls-1" d="M32,288V400H160V288Zm112,96H48V304h96Z"/><rect class="cls-1" x="176" y="384" width="96" height="16"/><rect class="cls-1" x="176" y="352" width="96" height="16"/><rect class="cls-1" x="176" y="320" width="96" height="16"/><rect class="cls-1" x="176" y="288" width="128" height="16"/><rect class="cls-1" x="64" y="160" width="288" height="16"/><rect class="cls-1" x="32" y="256" width="288" height="16"/><rect class="cls-1" x="32" y="192" width="320" height="16"/><rect class="cls-1" x="32" y="224" width="320" height="16"/><path class="cls-1" d="M392,384a16,16,0,1,1,16-16h16a32,32,0,0,0-24-30.86V320H384v17.14A31.93,31.93,0,0,0,392,400a16,16,0,1,1-16,16H360a32,32,0,0,0,24,30.86V464h16V446.86A31.93,31.93,0,0,0,392,384Z"/><rect class="cls-1" x="448" y="384" width="16" height="16"/><rect class="cls-1" x="320" y="384" width="16" height="16"/><path class="cls-1" d="M392,288c-2.7,0-5.35.2-8,.41V0H92.49L0,100.89V432H296v-.06a104,104,0,0,0,165.34,37.57l-10.68-11.92a87.71,87.71,0,1,1,12.84-14.26l13,9.34A104,104,0,0,0,392,288ZM104,112V48H336v80H48V112ZM88,28.56V96H26.18ZM368,290.9c-45.79,10.88-80,52-80,101.1a103.81,103.81,0,0,0,2.9,24H16V112H32v32H352V32H104V16H368Z"/><rect class="cls-1" x="32" y="160" width="16" height="16"/><rect class="cls-1" x="336" y="256" width="16" height="16"/></svg>