<?xml version="1.0" encoding="utf-8"?>
<!-- Generator: Adobe Illustrator 22.1.0, SVG Export Plug-In . SVG Version: 6.00 Build 0)  -->
<svg version="1.1" id="Layer_1" xmlns="http://www.w3.org/2000/svg" xmlns:xlink="http://www.w3.org/1999/xlink" x="0px" y="0px"
	 viewBox="0 0 512 512" style="enable-background:new 0 0 512 512;" xml:space="preserve">
<style type="text/css">
	.st0{fill:#0089FF;}
</style>
<path class="st0" d="M472,112h-96V40c0-13.3-10.7-24-24-24H160c-13.3,0-24,10.7-24,24v72H40c-13.3,0-24,10.7-24,24v304
	c0,13.3,10.7,24,24,24l0,0h216v24c0,4.4,3.6,8,8,8h224c4.4,0,8-3.6,8-8V136C496,122.7,485.3,112,472,112z M152,40c0-4.4,3.6-8,8-8
	h192c4.4,0,8,3.6,8,8v72h-16V56c0-4.4-3.6-8-8-8H176c-4.4,0-8,3.6-8,8v56h-16V40z M328,112H184V64h144V112z M40,128h432
	c4.4,0,8,3.6,8,8v8H328v0.1c-2.1,0-4.1,0.8-5.7,2.3l-64,64c-1.5,1.5-2.3,3.5-2.3,5.7H256v24h-96v-8c0-4.4-3.6-8-8-8v-40
	c0-4.4-3.6-8-8-8H96c-4.4,0-8,3.6-8,8v40c-4.4,0-8,3.6-8,8v8H32V136C32,131.6,35.6,128,40,128L40,128z M320,171.3V208h-36.7
	L320,171.3z M144,256H96v-16h48V256z M136,224h-32v-32h32V224z M104,272h32v35.7l-16,10.7l-16-10.7V272z M40,448c-4.4,0-8-3.6-8-8
	V256h48v8c0,4.4,3.6,8,8,8v40c0,2.7,1.3,5.2,3.6,6.7l24,16c2.7,1.8,6.2,1.8,8.9,0l24-16c2.2-1.5,3.6-4,3.6-6.7v-40c4.4,0,8-3.6,8-8
	v-8h96v192H40z M480,480H272V224h56c4.4,0,8-3.6,8-8v-56h144V480z"/>
<path class="st0" d="M352,192h32v16h-32V192z"/>
<path class="st0" d="M400,192h64v16h-64V192z"/>
<path class="st0" d="M288,240h96v16h-96V240z"/>
<path class="st0" d="M400,240h64v16h-64V240z"/>
<path class="st0" d="M288,288h176v16H288V288z"/>
<path class="st0" d="M288,336h176v16H288V336z"/>
<path class="st0" d="M288,384h176v16H288V384z"/>
<path class="st0" d="M288,432h32v16h-32V432z"/>
<path class="st0" d="M336,432h32v16h-32V432z"/>
<path class="st0" d="M384,432h32v16h-32V432z"/>
<path class="st0" d="M432,432h32v16h-32V432z"/>
</svg>
