<?xml version="1.0" encoding="utf-8"?>
<!-- Generator: Adobe Illustrator 22.1.0, SVG Export Plug-In . SVG Version: 6.00 Build 0)  -->
<svg version="1.1" id="Layer_1" xmlns="http://www.w3.org/2000/svg" xmlns:xlink="http://www.w3.org/1999/xlink" x="0px" y="0px"
	 viewBox="0 0 937.5 937.5" style="enable-background:new 0 0 937.5 937.5;" xml:space="preserve">
<style type="text/css">
	.st0{fill:#0089FF;}
</style>
<g id="surface1">
	<path class="st0" d="M859.4,0H203.1C160,0.1,125.1,35,125,78.1v250h31.2v-250c0-25.9,21-46.9,46.9-46.9h656.2
		c25.9,0,46.9,21,46.9,46.9v484.4c0,25.9-21,46.9-46.9,46.9H656.2v31.2h203.1c43.1-0.1,78.1-35,78.1-78.1V78.1
		C937.4,35,902.5,0.1,859.4,0z"/>
	<path class="st0" d="M187.5,62.5h31.2v31.2h-31.2V62.5z"/>
	<path class="st0" d="M250,62.5h31.2v31.2H250V62.5z"/>
	<path class="st0" d="M312.5,62.5h31.2v31.2h-31.2V62.5z"/>
	<path class="st0" d="M187.5,125H875v31.2H187.5V125z"/>
	<path class="st0" d="M187.5,187.5h156.2v31.2H187.5V187.5z"/>
	<path class="st0" d="M187.5,250h93.8v31.2h-93.8V250z"/>
	<path class="st0" d="M453.1,296.9v-31.2c0-8.6-7-15.6-15.6-15.6H375c-8.6,0-15.6,7-15.6,15.6v15.6h62.5v15.6H453.1z"/>
	<path class="st0" d="M578.1,375V218.8c0-8.6-7-15.6-15.6-15.6H500c-8.6,0-15.6,7-15.6,15.6v109.4h31.2v-93.8h31.2V375H578.1z"/>
	<path class="st0" d="M671.9,531.2h-15.6v31.2H875v-31.2h-46.9V218.8c0-8.6-7-15.6-15.6-15.6H750c-8.6,0-15.6,7-15.6,15.6v312.5
		h-31.2V328.1c0-8.6-7-15.6-15.6-15.6H625c-8.6,0-15.6,7-15.6,15.6v140.6h31.2v-125h31.2V531.2z M765.6,234.4h31.2v296.9h-31.2
		V234.4z"/>
	<path class="st0" d="M312.5,312.5C139.9,312.5,0,452.4,0,625s139.9,312.5,312.5,312.5S625,797.6,625,625
		C624.8,452.5,485,312.7,312.5,312.5z M312.5,906.2C160.1,906.4,35.4,785.1,31.1,632.8c-4.2-152.3,113.6-280.3,265.7-288.6V625
		c0,0.3,0.2,0.6,0.2,1c0.1,1.4,0.4,2.7,0.8,4c0.1,0.3,0,0.7,0.2,1c0.1,0.2,0.2,0.4,0.3,0.6c0.7,1.6,1.7,3.1,2.9,4.4l0.1,0.1
		L500,834.6C448.5,880.9,381.7,906.4,312.5,906.2z M522.1,812.5L350.2,640.6h243.1C590,704.4,564.8,765,522.1,812.5z M328.1,609.4
		V344.2c143,8.1,257.1,122.2,265.2,265.2H328.1z"/>
</g>
</svg>
